<svg width="16" height="16" viewBox="0 0 16 16" fill="none" xmlns="http://www.w3.org/2000/svg">
<path d="M14.1313 4.46886C14.0976 4.40321 14.0488 4.34646 13.9889 4.30324C13.9291 4.26001 13.8599 4.23153 13.787 4.2201C13.7141 4.20868 13.6395 4.21465 13.5693 4.23751C13.4991 4.26037 13.4353 4.29949 13.3831 4.35167L11.5831 6.15284C11.4947 6.23992 11.3756 6.28873 11.2516 6.28873C11.1275 6.28873 11.0084 6.23992 10.9201 6.15284L10.142 5.37354C10.0984 5.33002 10.0639 5.27834 10.0403 5.22146C10.0168 5.16458 10.0046 5.10362 10.0046 5.04205C10.0046 4.98048 10.0168 4.91952 10.0403 4.86264C10.0639 4.80576 10.0984 4.75409 10.142 4.71056L11.9343 2.91788C11.9881 2.86416 12.0279 2.79818 12.0505 2.72562C12.0731 2.65307 12.0777 2.57611 12.0639 2.50139C12.0501 2.42667 12.0184 2.35642 11.9714 2.29668C11.9244 2.23695 11.8637 2.18953 11.7943 2.15851C10.4405 1.55323 8.75066 1.86905 7.68513 2.92667C6.77986 3.8255 6.51003 5.22999 6.94538 6.78009C6.96886 6.86275 6.96899 6.95029 6.94577 7.03303C6.92256 7.11576 6.87689 7.19046 6.81384 7.24884L1.9365 11.7034C1.74649 11.874 1.59323 12.0815 1.48607 12.3133C1.3789 12.5451 1.32008 12.7963 1.31319 13.0516C1.30629 13.3068 1.35147 13.5608 1.44598 13.798C1.54048 14.0353 1.68232 14.2507 1.86284 14.4313C2.04336 14.612 2.25879 14.7539 2.49597 14.8485C2.73316 14.9431 2.98713 14.9884 3.24239 14.9816C3.49766 14.9748 3.74887 14.9161 3.9807 14.8091C4.21253 14.702 4.42011 14.5488 4.59079 14.3589L9.09314 9.47071C9.15068 9.40847 9.22411 9.36311 9.30552 9.33952C9.38694 9.31593 9.47324 9.31499 9.55515 9.33682C9.99646 9.45774 10.4517 9.52048 10.9092 9.52345C11.8878 9.52345 12.7465 9.20675 13.3658 8.59649C14.5128 7.46651 14.6877 5.54991 14.1313 4.46886ZM3.28972 14.0381C3.09677 14.0592 2.90204 14.0198 2.73241 13.9255C2.56277 13.8312 2.42659 13.6865 2.34267 13.5115C2.25874 13.3365 2.2312 13.1397 2.26386 12.9484C2.29651 12.7571 2.38774 12.5806 2.52496 12.4433C2.66219 12.3061 2.83863 12.2148 3.02995 12.182C3.22127 12.1493 3.41802 12.1768 3.59307 12.2607C3.76811 12.3445 3.91281 12.4806 4.00719 12.6503C4.10157 12.8199 4.14099 13.0146 4.11999 13.2075C4.0969 13.4198 4.00201 13.6179 3.85102 13.7689C3.70004 13.92 3.50202 14.0149 3.28972 14.0381Z" fill="#5C5C5D"/>
</svg>
