<svg width="16" height="16" viewBox="0 0 16 16" fill="none" xmlns="http://www.w3.org/2000/svg">
<path d="M1.3125 11.9526C1.3125 12.3878 1.48535 12.8051 1.79303 13.1127C2.1007 13.4204 2.518 13.5933 2.95312 13.5933H12.7969C13.232 13.5933 13.6493 13.4204 13.957 13.1127C14.2646 12.8051 14.4375 12.3878 14.4375 11.9526V7.44092H1.3125V11.9526ZM3.24609 9.72607C3.24609 9.49297 3.33869 9.26942 3.50352 9.10459C3.66835 8.93977 3.8919 8.84717 4.125 8.84717H5.53125C5.76435 8.84717 5.9879 8.93977 6.15273 9.10459C6.31756 9.26942 6.41015 9.49297 6.41015 9.72607V10.312C6.41015 10.5451 6.31756 10.7687 6.15273 10.9335C5.9879 11.0983 5.76435 11.1909 5.53125 11.1909H4.125C3.8919 11.1909 3.66835 11.0983 3.50352 10.9335C3.33869 10.7687 3.24609 10.5451 3.24609 10.312V9.72607Z" fill="#5C5C5D"/>
<path d="M12.7969 3.28052H2.95312C2.518 3.28052 2.1007 3.45337 1.79303 3.76105C1.48535 4.06872 1.3125 4.48602 1.3125 4.92114V5.68286H14.4375V4.92114C14.4375 4.48602 14.2646 4.06872 13.957 3.76105C13.6493 3.45337 13.232 3.28052 12.7969 3.28052Z" fill="#5C5C5D"/>
</svg>
