<svg width="16" height="16" viewBox="0 0 16 16" fill="none" xmlns="http://www.w3.org/2000/svg">
<g clip-path="url(#clip0_2509_58)">
<path d="M8.03789 3.90498C7.99427 3.86325 7.93624 3.83997 7.87588 3.83997C7.81552 3.83997 7.75748 3.86325 7.71387 3.90498L2.32031 9.05742C2.29741 9.07933 2.27918 9.10566 2.26675 9.13481C2.25431 9.16397 2.24791 9.19535 2.24795 9.22705L2.24707 14.0628C2.24707 14.3114 2.34584 14.5499 2.52166 14.7257C2.69747 14.9015 2.93593 15.0003 3.18457 15.0003H6C6.12432 15.0003 6.24355 14.9509 6.33145 14.863C6.41936 14.7751 6.46875 14.6559 6.46875 14.5315V10.5472C6.46875 10.485 6.49344 10.4254 6.5374 10.3814C6.58135 10.3375 6.64096 10.3128 6.70312 10.3128H9.04687C9.10903 10.3128 9.16865 10.3375 9.2126 10.3814C9.25655 10.4254 9.28125 10.485 9.28125 10.5472V14.5315C9.28125 14.6559 9.33063 14.7751 9.41854 14.863C9.50645 14.9509 9.62568 15.0003 9.75 15.0003H12.5643C12.8129 15.0003 13.0514 14.9015 13.2272 14.7257C13.403 14.5499 13.5018 14.3114 13.5018 14.0628V9.22705C13.5018 9.19535 13.4954 9.16397 13.483 9.13481C13.4705 9.10566 13.4523 9.07933 13.4294 9.05742L8.03789 3.90498Z" fill="white"/>
<path d="M14.7571 8.09119L12.5657 5.9947V2.81335C12.5657 2.68903 12.5163 2.56981 12.4284 2.4819C12.3405 2.39399 12.2213 2.3446 12.097 2.3446H10.6907C10.5664 2.3446 10.4472 2.39399 10.3593 2.4819C10.2714 2.56981 10.222 2.68903 10.222 2.81335V3.75085L8.52511 2.12839C8.36632 1.96785 8.13018 1.87585 7.87501 1.87585C7.62071 1.87585 7.38516 1.96785 7.22638 2.12869L0.994933 8.0906C0.812706 8.26638 0.789855 8.55554 0.955675 8.74597C0.997315 8.79404 1.0483 8.83313 1.10553 8.86087C1.16276 8.8886 1.22503 8.90441 1.28856 8.90731C1.35209 8.91022 1.41554 8.90016 1.47506 8.87776C1.53458 8.85537 1.58892 8.82109 1.63478 8.77703L7.71388 2.96804C7.75749 2.92632 7.81553 2.90303 7.87589 2.90303C7.93625 2.90303 7.99428 2.92632 8.0379 2.96804L14.1176 8.77703C14.2071 8.86291 14.3271 8.90978 14.4512 8.90736C14.5752 8.90495 14.6933 8.85344 14.7794 8.76413C14.9593 8.57781 14.9443 8.27019 14.7571 8.09119Z" fill="white"/>
</g>
<defs>
<clipPath id="clip0_2509_58">
<rect width="15" height="15" fill="white" transform="translate(0.375 0.9375)"/>
</clipPath>
</defs>
</svg>
