<svg width="13" height="13" viewBox="0 0 13 13" fill="none" xmlns="http://www.w3.org/2000/svg">
<path d="M8.67127 1.82591C8.21518 1.33349 7.57815 1.06232 6.87502 1.06232C6.16815 1.06232 5.52901 1.33185 5.07502 1.82122C4.61612 2.31599 4.39252 2.98841 4.44502 3.7145C4.54909 5.147 5.63916 6.31231 6.87502 6.31231C8.11088 6.31231 9.19908 5.14724 9.30479 3.71497C9.35799 2.99544 9.13299 2.32443 8.67127 1.82591Z" fill="#718096"/>
<path d="M11.0001 11.5618H2.75013C2.64215 11.5632 2.53521 11.5405 2.43709 11.4954C2.33898 11.4502 2.25216 11.3838 2.18295 11.3009C2.0306 11.1188 1.9692 10.8701 2.01467 10.6186C2.21248 9.5213 2.82982 8.5995 3.80013 7.95239C4.66216 7.37794 5.75412 7.06177 6.87513 7.06177C7.99615 7.06177 9.0881 7.37817 9.95013 7.95239C10.9204 8.59927 11.5378 9.52106 11.7356 10.6184C11.7811 10.8699 11.7197 11.1186 11.5673 11.3007C11.4981 11.3836 11.4113 11.4501 11.3132 11.4953C11.2151 11.5404 11.1081 11.5631 11.0001 11.5618Z" fill="#718096"/>
</svg>
